<svg width="42" height="32" viewBox="0 0 42 32" fill="none" xmlns="http://www.w3.org/2000/svg">
<g clip-path="url(#clip0_2_25)">
<path d="M25.974 29.4653V29.344H18.3367V29.4653L18.338 29.5253C18.338 30.1976 18.071 30.8423 17.5956 31.3176C17.1203 31.7929 16.4756 32.06 15.8033 32.06C15.1311 32.06 14.4864 31.7929 14.0111 31.3176C13.5357 30.8423 13.2687 30.1976 13.2687 29.5253L13.27 29.4627V29.344H12.3993C12.0281 29.344 11.6681 29.217 11.379 28.9842C11.0899 28.7514 10.8891 28.4267 10.81 28.064L10.8087 28.0533L5.71934 3.95599L1.37134 3.23199C0.957241 3.14834 0.59187 2.90699 0.352424 2.55894C0.112977 2.21088 0.0182079 1.78337 0.0881381 1.36673C0.158068 0.950096 0.387221 0.576957 0.727183 0.326151C1.06714 0.0753447 1.49129 -0.0334857 1.91001 0.0226521L1.90201 0.0213188L7.34334 0.927985C8.00601 1.04132 8.52601 1.54265 8.66468 2.18532L8.66601 2.19599L9.58868 6.54799L25.462 7.87065C25.364 8.39209 25.314 8.92142 25.3127 9.45199V9.45732C25.3127 9.99332 25.3593 10.5187 25.45 11.0293L25.442 10.976C25.0052 11.1137 24.6344 11.4075 24.4005 11.8012C24.1666 12.195 24.0859 12.6612 24.174 13.1107L24.1727 13.0987L25.1313 20.0187C25.19 20.4627 25.3927 20.852 25.6887 21.1453C25.958 21.4133 26.3273 21.5813 26.7367 21.5853H26.738C26.8287 21.5853 26.918 21.576 27.0033 21.56L26.994 21.5613C27.4486 21.4425 27.8411 21.1553 28.0919 20.758C28.3426 20.3606 28.433 19.8828 28.3447 19.4213L28.346 19.4333L27.8233 15.6707C28.6529 16.5338 29.6485 17.2201 30.7502 17.6885C31.8518 18.1568 33.0369 18.3975 34.234 18.396C34.2913 18.396 34.3487 18.396 34.4047 18.388L34.5287 18.3813L33.6367 23.584C33.6153 23.7101 33.5501 23.8246 33.4525 23.9073C33.3549 23.99 33.2313 24.0356 33.1033 24.036H13.2833L13.7193 26.0987H32.5953C33.0154 26.1153 33.4127 26.2938 33.7041 26.5968C33.9955 26.8997 34.1585 27.3037 34.1588 27.724C34.1592 28.1444 33.9969 28.5486 33.706 28.8521C33.415 29.1555 33.018 29.3346 32.598 29.352H31.0433V29.4733C31.0433 30.1456 30.7763 30.7903 30.301 31.2656C29.8256 31.7409 29.1809 32.008 28.5087 32.008C27.8364 32.008 27.1917 31.7409 26.7164 31.2656C26.2411 30.7903 25.974 30.1456 25.974 29.4733V29.4653ZM27.7847 29.4653C27.785 29.5648 27.8059 29.6632 27.8462 29.7542C27.8864 29.8452 27.9452 29.9268 28.0186 29.9939C28.0921 30.0611 28.1787 30.1122 28.273 30.1441C28.3672 30.176 28.4671 30.1879 28.5662 30.1792C28.6654 30.1705 28.7616 30.1413 28.8489 30.0935C28.9361 30.0456 29.0125 29.9802 29.0731 29.9013C29.1338 29.8224 29.1774 29.7318 29.2012 29.6352C29.225 29.5385 29.2284 29.438 29.2113 29.34V29.344H27.798C27.7909 29.384 27.7873 29.4246 27.7873 29.4653H27.7847ZM15.0807 29.4653C15.081 29.5648 15.1019 29.6632 15.1422 29.7542C15.1824 29.8452 15.2412 29.9268 15.3146 29.9939C15.3881 30.0611 15.4747 30.1122 15.569 30.1441C15.6632 30.176 15.7631 30.1879 15.8622 30.1792C15.9614 30.1705 16.0576 30.1413 16.1449 30.0935C16.2321 30.0456 16.3085 29.9802 16.3691 29.9013C16.4298 29.8224 16.4734 29.7318 16.4972 29.6352C16.521 29.5385 16.5244 29.438 16.5073 29.34V29.344H15.0927C15.086 29.3832 15.0829 29.4229 15.0833 29.4627V29.4653H15.0807ZM20.2367 10.9653C19.7819 11.0839 19.3893 11.371 19.1384 11.7684C18.8876 12.1658 18.7973 12.6438 18.886 13.1053L18.8847 13.0933L19.8433 20.0133C19.902 20.4573 20.1047 20.8467 20.4007 21.14C20.67 21.408 21.0393 21.576 21.4487 21.58H21.45C21.5407 21.58 21.63 21.5707 21.7153 21.5547L21.706 21.556C22.1606 21.4372 22.5531 21.15 22.8039 20.7527C23.0546 20.3553 23.145 19.8775 23.0567 19.416L23.058 19.428L22.0993 12.508C22.044 12.0809 21.8479 11.6844 21.542 11.3813C21.2636 11.1032 20.8875 10.9448 20.494 10.94H20.4927C20.4007 10.94 20.3113 10.9493 20.2247 10.9667L20.234 10.9653H20.2367ZM14.9487 10.9653C14.4924 11.0833 14.0984 11.371 13.8471 11.7698C13.5958 12.1685 13.5062 12.6481 13.5967 13.1107L13.5953 13.0987L14.554 20.0187C14.6127 20.4627 14.8153 20.852 15.1113 21.1453C15.3807 21.4133 15.75 21.5813 16.1593 21.5853H16.1607C16.2513 21.5853 16.3407 21.576 16.426 21.56L16.4167 21.5613C16.8717 21.4431 17.2647 21.1561 17.5158 20.7586C17.7669 20.3612 17.8573 19.883 17.7687 19.4213L17.77 19.4333L16.81 12.5093C16.7547 12.0822 16.5586 11.6858 16.2527 11.3827C15.9746 11.1041 15.5983 10.9456 15.2047 10.9413H15.2033C15.1127 10.9413 15.0247 10.9507 14.9393 10.9667L14.9487 10.9653ZM26.6673 9.46132C26.6677 7.45275 27.4659 5.52658 28.8865 4.10655C29.5898 3.40343 30.4248 2.84573 31.3437 2.46529C32.2626 2.08486 33.2475 1.88914 34.242 1.88932C35.2366 1.88949 36.2213 2.08556 37.1401 2.46631C38.0589 2.84707 38.8937 3.40507 39.5968 4.10844C40.2999 4.81181 40.8576 5.64679 41.238 6.5657C41.6185 7.4846 41.8142 8.46944 41.814 9.46399C41.8135 11.4729 41.0149 13.3993 39.594 14.8195C38.1731 16.2396 36.2463 17.0372 34.2373 17.0367C32.2284 17.0361 30.302 16.2376 28.8818 14.8167C27.4617 13.3958 26.6641 11.4689 26.6647 9.45999L26.6673 9.46132ZM28.8367 9.46132C28.8367 10.171 28.9765 10.8737 29.248 11.5293C29.5196 12.185 29.9177 12.7807 30.4195 13.2825C30.9213 13.7843 31.517 14.1824 32.1727 14.454C32.8283 14.7255 33.531 14.8653 34.2407 14.8653C34.9503 14.8653 35.6531 14.7255 36.3087 14.454C36.9643 14.1824 37.5601 13.7843 38.0619 13.2825C38.5637 12.7807 38.9617 12.185 39.2333 11.5293C39.5049 10.8737 39.6447 10.171 39.6447 9.46132C39.6449 8.02774 39.0755 6.6528 38.062 5.63898C37.0484 4.62515 35.6736 4.0555 34.24 4.05532C32.8064 4.05514 31.4315 4.62446 30.4177 5.63803C29.4038 6.6516 28.8342 8.0264 28.834 9.45999L28.8367 9.46132ZM33.1567 11.6227V10.5453H32.0793C31.7915 10.5453 31.5154 10.431 31.3119 10.2274C31.1084 10.0239 30.994 9.74783 30.994 9.45999C30.994 9.17214 31.1084 8.89608 31.3119 8.69254C31.5154 8.489 31.7915 8.37465 32.0793 8.37465H33.1567V7.29732C33.1567 7.00947 33.271 6.73341 33.4746 6.52987C33.6781 6.32633 33.9542 6.21199 34.242 6.21199C34.5299 6.21199 34.8059 6.32633 35.0095 6.52987C35.213 6.73341 35.3273 7.00947 35.3273 7.29732V8.37465H36.4047C36.6925 8.37465 36.9686 8.489 37.1721 8.69254C37.3757 8.89608 37.49 9.17214 37.49 9.45999C37.49 9.74783 37.3757 10.0239 37.1721 10.2274C36.9686 10.431 36.6925 10.5453 36.4047 10.5453H35.3273V11.6213C35.3273 11.9092 35.213 12.1852 35.0095 12.3888C34.8059 12.5923 34.5299 12.7067 34.242 12.7067C33.9542 12.7067 33.6781 12.5923 33.4746 12.3888C33.271 12.1852 33.1567 11.9092 33.1567 11.6213V11.6227Z" fill="#333333"/>
</g>
<defs>
<clipPath id="clip0_2_25">
<rect width="41.34" height="32" fill="white"/>
</clipPath>
</defs>
</svg>
